<svg id="Capa_1" data-name="Capa 1" xmlns="http://www.w3.org/2000/svg" viewBox="0 0 180 180"><defs><style>.cls-1{fill:#fff;}.cls-2{fill:#5f8d4e;}.cls-3{fill:#285531;}.cls-4{fill:none;}</style></defs><rect class="cls-1" width="180" height="180" rx="12"/><g id="Capa_2" data-name="Capa 2"><g id="Logo1"><path class="cls-2" d="M93.47,71.18a21.88,21.88,0,0,0-3.79-.33,21.5,21.5,0,0,0-10.94,40c-3.15,25.48,9.08,61.94,10.4,65.88l0,.15.06.18c-2.08-5.17-4.83-10.52-7.74-16.32C76.33,150.42,68.59,141.39,62,133c-4.28-5.42-6.36-10.49-8.44-16.56-3.62-10.57-9.47-31.67,7.31-53.33C84.52,32.58,89.34,3.33,89.25,2.9,98.36,20.81,99.21,49.05,93.47,71.18Z"/><path class="cls-3" d="M125.38,116.45c-1.61,3.31-5.29,11.16-9,16.35-5.59,7.74-13,17.29-19.35,28-3.33,5.63-5.31,11.11-7.74,16.34v0a.88.88,0,0,0-.06-.17l0-.15c-1.32-3.95-13.55-40.41-10.4-65.89l.52.3a21.51,21.51,0,1,0,14.2-40c5.75-22.11,4.9-50.35-4.21-68.26,30.13,32.55,34.84,50.32,37.42,59.79C131.18,79.2,132.69,101.4,125.38,116.45Z"/><path class="cls-4" d="M111.18,92.37a21.51,21.51,0,0,1-31.92,18.8c-.17-.09-.35-.19-.52-.3a21.5,21.5,0,0,1,10.94-40,21.88,21.88,0,0,1,3.79.33A21.5,21.5,0,0,1,111.18,92.37Z"/></g></g></svg>